<?xml version="1.0" encoding="UTF-8" standalone="no"?>
<!-- Created with Inkscape (http://www.inkscape.org/) -->

<svg
   version="1.1"
   id="svg2"
   xml:space="preserve"
   width="288"
   height="288"
   viewBox="0 0 288 288"
   sodipodi:docname="WHA-Logo-CMYK-full-color.svg"
   inkscape:version="1.1.1 (3bf5ae0d25, 2021-09-20)"
   xmlns:inkscape="http://www.inkscape.org/namespaces/inkscape"
   xmlns:sodipodi="http://sodipodi.sourceforge.net/DTD/sodipodi-0.dtd"
   xmlns="http://www.w3.org/2000/svg"
   xmlns:svg="http://www.w3.org/2000/svg"><defs
     id="defs6"><clipPath
       clipPathUnits="userSpaceOnUse"
       id="clipPath16"><path
         d="M 0,216 H 216 V 0 H 0 Z"
         id="path14" /></clipPath></defs><sodipodi:namedview
     id="namedview4"
     pagecolor="#ffffff"
     bordercolor="#666666"
     borderopacity="1.0"
     inkscape:pageshadow="2"
     inkscape:pageopacity="0.0"
     inkscape:pagecheckerboard="0"
     showgrid="false"
     inkscape:document-units="in"
     inkscape:zoom="1.4142136"
     inkscape:cx="170.76629"
     inkscape:cy="115.2584"
     inkscape:window-width="1920"
     inkscape:window-height="1011"
     inkscape:window-x="0"
     inkscape:window-y="32"
     inkscape:window-maximized="1"
     inkscape:current-layer="g8"
     showguides="false" /><g
     id="g8"
     inkscape:groupmode="layer"
     inkscape:label="WHA-Logo-CMYK-full-color"
     transform="matrix(1.3333333,0,0,-1.3333333,0,288)"><path
       d="m 131.97323,52.501267 c 15.19175,10.17937 25.67687,30.44242 26.0821,53.864053 h 11.79535 C 169.31228,82.026988 153.79914,61.243672 131.97323,52.501267 m 0.52853,20.792965 c 8.2e-4,0.0024 -0.002,0.0032 -0.002,0.0048 0.023,0.09649 0.037,0.196207 0.037,0.299134 l -2.71663,0.257318 C 125.47352,59.19153 118.47851,49.704509 111.01333,48.575522 V 73.8732 h -0.0123 -2.7232 -0.007 v -0.07157 c 0,-0.0088 -0.002,-0.01608 -0.002,-0.02412 0,-0.0088 0.002,-0.01608 0.002,-0.02412 V 48.529712 C 100.69296,49.456864 93.577116,58.980071 89.168862,73.8732 h -0.0025 l -2.764451,-0.0912 c 0,0 0.108244,-0.376887 0.135621,-0.463919 l 0.242711,-0.77157 C 88.408079,67.371658 94.395803,54.14087 99.806045,49.648245 79.790944,55.503051 64.708518,78.611082 64.213689,106.36532 l 3.987846,3.3e-4 0.01472,2.68736 -4.00503,-0.004 c 0.460306,28.26245 16.046603,51.72751 36.581195,57.10547 -6.394149,-4.66712 -11.720544,-13.97118 -15.116124,-27.26812 -0.0016,-0.008 -0.311285,-1.71251 -0.312985,-1.71961 -0.0337,-0.11659 0.210335,1.16188 0.103543,0.58579 l 2.753404,-0.0149 c 0.0074,0.002 0.01397,0.004 0.02137,0.006 4.265231,16.67666 11.885762,27.71162 20.029072,28.71838 v -29.64956 c 8.2e-4,-8e-4 0.002,-8e-4 0.002,-0.002 0,-0.0153 0.0111,-0.23151 0.0111,-0.24751 l 2.71782,0.11081 -0.0152,0.21431 0.0267,29.53132 c 6.84788,-1.0357 13.33737,-9.10184 17.73576,-21.92114 0.002,-0.003 0.0123,-0.005 0.0156,-0.008 0,0 2.86183,-0.086 2.92673,-0.47199 0,0.13509 -0.28899,1.16433 -0.32679,1.28736 l 0.009,0.006 c -3.43257,9.98397 -8.18852,17.30388 -13.5404,21.06234 20.97188,-4.92685 37.00204,-28.65888 37.46893,-57.3266 h -4.95469 l -0.007,-2.69041 4.95902,0.006 C 154.7989,78.24033 139.32192,54.873373 118.90816,49.408565 c 5.52532,4.436337 10.31251,12.772661 13.59301,23.884007 M 48.088176,106.36532 H 61.458427 C 61.881745,81.862948 73.336794,60.817488 89.671089,51.158385 65.917644,58.942278 48.656161,80.67124 48.088176,106.36532 m 40.779021,57.54292 C 72.932382,154.02559 61.837358,133.20287 61.455961,109.04948 h -13.36532 c 0.595111,25.36842 17.462046,46.86016 40.776556,54.85876 M 169.84821,109.04948 H 158.0578 c -0.36578,23.08793 -10.51882,43.13386 -25.33411,53.48853 21.40917,-8.90403 36.56147,-29.4638 37.12452,-53.48853 m -54.80439,60.60179 c -1.68176,0.23722 -3.38818,0.36909 -5.11679,0.37713 -0.0929,0.0201 -0.18495,0.045 -0.28441,0.045 -0.12329,0 -0.23919,-0.0241 -0.35262,-0.0539 -0.90746,-0.0145 -1.80999,-0.0611 -2.70595,-0.1367 -33.998542,-1.23353 -61.272507,-28.65969 -61.272507,-62.21486 0,-34.339994 28.557069,-62.276772 63.657057,-62.276772 35.10164,0 63.65953,27.936778 63.65953,62.276772 0,32.33291 -25.32259,58.98068 -57.58431,61.98327"
       style="fill:#99c584;fill-opacity:1;fill-rule:nonzero;stroke:none;stroke-width:0.812999"
       id="path20"
       sodipodi:nodetypes="cccccccccccccsssccccsscccccccccccccsccccccccccccccccccccccccccccccsccsssc" /><g
       id="g22"
       transform="matrix(0.82197539,0,0,0.80412118,108.96942,41.710685)"><path
         d="m 0,0 c -45.273,0 -82.104,36.832 -82.104,82.104 0,45.273 36.831,82.104 82.104,82.104 45.273,0 82.104,-36.831 82.104,-82.104 C 82.104,36.832 45.273,0 0,0 m 0.038,190.21 c -59.551,0 -108,-48.449 -108,-108 0,-59.551 48.449,-108 108,-108 59.552,0 108,48.449 108,108 0,59.551 -48.448,108 -108,108"
         style="fill:#005da6;fill-opacity:1;fill-rule:nonzero;stroke:none"
         id="path24" /></g><g
       id="g26"
       transform="matrix(0.82197539,0,0,0.80412118,48.876117,145.82813)"><path
         d="m 0,0 -1.057,-1.87 -4.494,0.624 -4.387,0.851 3.033,-3.323 2.836,-3.477 -1.058,-1.87 -14.11,2.32 1.398,2.47 9.986,-2.014 -6.824,7.606 0.813,1.435 10.081,-1.848 -6.919,7.44 1.397,2.47 z"
         style="fill:#ffffff;fill-opacity:1;fill-rule:nonzero;stroke:none"
         id="path28" /></g><g
       id="g30"
       transform="matrix(0.82197539,0,0,0.80412118,56.452347,156.42315)"><path
         d="m 0,0 c 2.514,2.666 1.7,5.858 -0.381,7.845 -2.192,2.067 -5.37,2.61 -7.897,-0.044 -2.474,-2.624 -1.92,-5.755 0.41,-7.9 C -5.706,-2.083 -2.514,-2.668 0,0 M 0.54,8.822 C 3.081,6.401 4.04,2.439 0.921,-0.869 -2.21,-4.192 -6.235,-3.483 -8.803,-1.062 -11.554,1.53 -12.187,5.501 -9.2,8.67 c 3.132,3.296 7.143,2.628 9.74,0.152"
         style="fill:#ffffff;fill-opacity:1;fill-rule:nonzero;stroke:none"
         id="path32" /></g><g
       id="g34"
       transform="matrix(0.82197539,0,0,0.80412118,59.688628,171.3655)"><path
         d="m 0,0 3.434,-4.853 3.757,2.657 C 8.945,-0.956 9.059,0.677 8.085,2.053 7.11,3.432 5.511,3.898 3.821,2.703 Z M 14.913,-4.344 13.488,-5.353 6.999,-3.882 4.164,-5.888 7.022,-9.926 5.926,-10.702 -1.827,0.259 c 1.643,1.163 3.272,2.314 4.916,3.477 2.443,1.727 4.769,0.93 6.091,-0.907 1.224,-1.696 1.317,-3.954 -0.922,-5.702 z"
         style="fill:#ffffff;fill-opacity:1;fill-rule:nonzero;stroke:none"
         id="path36" /></g><g
       id="g38"
       transform="matrix(0.82197539,0,0,0.80412118,72.274962,180.19016)"><path
         d="m 0,0 5.173,-11.002 6.751,3.173 0.538,-1.145 -7.965,-3.746 -5.712,12.147 z"
         style="fill:#ffffff;fill-opacity:1;fill-rule:nonzero;stroke:none"
         id="path40" /></g><g
       id="g42"
       transform="matrix(0.82197539,0,0,0.80412118,87.295001,175.64447)"><path
         d="M 0,0 3.283,0.869 C 6.898,1.824 7.785,5.074 7.037,7.675 6.314,10.183 3.995,12.347 0.492,11.419 L -2.791,10.55 Z M 0.168,12.643 C 4.562,13.806 7.51,11.211 8.358,8.005 9.227,4.723 8.144,0.865 3.602,-0.338 2.099,-0.735 0.523,-1.151 -0.978,-1.548 L -4.412,11.43 Z"
         style="fill:#ffffff;fill-opacity:1;fill-rule:nonzero;stroke:none"
         id="path44" /></g><g
       id="g46"
       transform="matrix(0.82197539,0,0,0.80412118,114.61993,177.61963)"><path
         d="M 0,0 0.231,5.422 -6.36,5.702 -6.591,0.28 -9.12,0.389 -8.548,13.8 -6.018,13.691 -6.259,8.04 0.331,7.76 0.573,13.411 3.082,13.304 2.51,-0.107 Z"
         style="fill:#ffffff;fill-opacity:1;fill-rule:nonzero;stroke:none"
         id="path48" /></g><g
       id="g50"
       transform="matrix(0.82197539,0,0,0.80412118,121.85767,176.67647)"><path
         d="M 0,0 2.506,13.196 3.825,12.945 1.32,-0.251 Z"
         style="fill:#ffffff;fill-opacity:1;fill-rule:nonzero;stroke:none"
         id="path52" /></g><g
       id="g54"
       transform="matrix(0.82197539,0,0,0.80412118,137.72738,181.26029)"><path
         d="M 0,0 C -0.341,1.451 -1.768,2.379 -3.107,2.851 -4.67,3.378 -6.84,3.605 -7.473,1.734 c -0.503,-1.489 0.998,-2.443 2.862,-3.456 2.36,-1.283 4.714,-2.707 3.799,-5.414 -0.988,-2.865 -4.015,-2.713 -6.322,-1.933 -2.144,0.725 -4.061,2.241 -4.355,4.609 l 1.311,0.225 c 0.32,-1.929 1.911,-3.094 3.456,-3.618 1.562,-0.527 3.938,-0.864 4.626,1.171 0.601,1.72 -1.178,2.806 -3.042,3.821 -2.257,1.228 -4.441,2.553 -3.606,5.025 0.866,2.683 3.88,2.616 6.024,1.892 1.745,-0.589 3.457,-1.694 3.995,-3.819 z"
         style="fill:#ffffff;fill-opacity:1;fill-rule:nonzero;stroke:none"
         id="path56" /></g><g
       id="g58"
       transform="matrix(0.82197539,0,0,0.80412118,147.46212,178.14199)"><path
         d="m 0,0 -4.156,2.271 0.607,1.111 C -0.217,1.562 2.61,0.016 5.942,-1.803 l -0.607,-1.111 -4.156,2.27 -5.829,-10.67 -1.179,0.644 z"
         style="fill:#ffffff;fill-opacity:1;fill-rule:nonzero;stroke:none"
         id="path60" /></g><g
       id="g62"
       transform="matrix(0.82197539,0,0,0.80412118,154.4873,162.84085)"><path
         d="M 0,0 C 2.843,-2.31 5.966,-1.264 7.795,0.956 9.694,3.293 10.003,6.502 7.171,8.828 4.374,11.101 1.291,10.319 -0.674,7.839 -2.496,5.537 -2.843,2.31 0,0 M 8.837,0.111 C 6.61,-2.602 2.73,-3.848 -0.798,-0.983 -4.341,1.896 -3.93,5.961 -1.705,8.7 0.678,11.632 4.591,12.556 7.97,9.809 11.486,6.929 11.114,2.881 8.837,0.111"
         style="fill:#ffffff;fill-opacity:1;fill-rule:nonzero;stroke:none"
         id="path64" /></g><g
       id="g66"
       transform="matrix(0.82197539,0,0,0.80412118,169.95778,160.77836)"><path
         d="m 0,0 -4.591,-3.777 2.926,-3.554 c 1.364,-1.659 3,-1.655 4.303,-0.583 1.303,1.074 1.652,2.701 0.336,4.301 z m -3.246,-15.19 -1.11,1.349 0.994,6.579 -2.206,2.681 -3.821,-3.145 -0.853,1.036 10.366,8.532 c 1.28,-1.556 2.548,-3.096 3.827,-4.65 1.901,-2.31 1.276,-4.689 -0.46,-6.142 -1.602,-1.343 -3.848,-1.602 -5.756,0.505 z"
         style="fill:#ffffff;fill-opacity:1;fill-rule:nonzero;stroke:none"
         id="path68" /></g><g
       id="g70"
       transform="matrix(0.82197539,0,0,0.80412118,176.11626,144.70236)"><path
         d="m 0,0 7.978,-0.5 0.769,-1.372 -0.033,-0.02 -9.524,0.668 -4.72,-2.644 -0.656,1.171 4.72,2.646 4.44,8.403 0.033,0.018 0.759,-1.355 z"
         style="fill:#ffffff;fill-opacity:1;fill-rule:nonzero;stroke:none"
         id="path72" /></g><g
       id="g74"
       transform="matrix(0.82197539,0,0,0.80412118,182.95395,82.299103)"><path
         d="m 0,0 c -0.152,0 -0.307,0.025 -0.459,0.077 -0.736,0.254 -1.126,1.055 -0.872,1.79 3.387,9.81 5.104,20.085 5.104,30.536 0,5.591 -0.498,11.198 -1.482,16.668 -0.138,0.765 0.372,1.496 1.137,1.634 C 4.187,50.85 4.923,50.334 5.062,49.568 6.075,43.936 6.589,38.16 6.589,32.403 6.589,21.638 4.82,11.055 1.331,0.949 1.129,0.366 0.583,0 0,0"
         style="fill:#ffffff;fill-opacity:1;fill-rule:nonzero;stroke:none"
         id="path76" /></g><g
       id="g78"
       transform="matrix(0.82197539,0,0,0.80412118,35.414133,82.299103)"><path
         d="m 0,0 c -0.583,0 -1.129,0.366 -1.331,0.949 -3.489,10.106 -5.258,20.689 -5.258,31.454 0,5.757 0.514,11.533 1.527,17.165 0.139,0.766 0.875,1.278 1.634,1.137 0.765,-0.138 1.275,-0.869 1.137,-1.634 -0.984,-5.47 -1.482,-11.077 -1.482,-16.668 0,-10.451 1.717,-20.726 5.104,-30.536 C 1.585,1.132 1.195,0.331 0.459,0.077 0.307,0.025 0.152,0 0,0"
         style="fill:#ffffff;fill-opacity:1;fill-rule:nonzero;stroke:none"
         id="path80" /></g><g
       id="g82"
       transform="matrix(0.82197539,0,0,0.80412118,49.640555,63.211196)"
       style="stroke:none"><path
         d="m 0,0 -6.045,-1.526 3.053,-3.943 z m -4.235,-7.716 -4.297,5.55 -2.706,-0.64 -1.678,2.168 14.3,3.456 1.69,-2.184 -6.928,-12.979 -1.69,2.184 z"
         style="fill:#ffffff;fill-opacity:1;fill-rule:nonzero;stroke:none"
         id="path84" /></g><g
       id="g86"
       transform="matrix(0.82197539,0,0,0.80412118,62.653,50.296447)"><path
         d="m 0,0 c 0.231,1.471 -0.743,2.869 -1.806,3.811 -1.25,1.076 -3.176,2.103 -4.466,0.606 -1.027,-1.191 0.005,-2.638 1.352,-4.279 1.704,-2.077 3.35,-4.283 1.483,-6.447 -1.993,-2.284 -4.74,-1.005 -6.586,0.587 -1.715,1.477 -2.92,3.605 -2.302,5.91 l 1.3,-0.285 c -0.429,-1.909 0.606,-3.587 1.842,-4.652 1.249,-1.078 3.325,-2.284 4.728,-0.655 1.204,1.366 -0.036,3.042 -1.382,4.685 -1.63,1.987 -3.156,4.036 -1.452,6.013 1.813,2.162 4.581,0.965 6.295,-0.512 C 0.401,3.58 1.573,1.911 1.271,-0.261 Z"
         style="fill:#ffffff;fill-opacity:1;fill-rule:nonzero;stroke:none"
         id="path88" /></g><g
       id="g90"
       transform="matrix(0.82197539,0,0,0.80412118,74.710311,42.684797)"><path
         d="m 0,0 c -0.053,1.489 -1.276,2.675 -2.498,3.398 -1.43,0.82 -3.516,1.461 -4.499,-0.253 -0.782,-1.364 0.507,-2.588 2.14,-3.945 2.068,-1.714 4.103,-3.566 2.682,-6.046 -1.522,-2.62 -4.462,-1.885 -6.576,-0.675 -1.964,1.124 -3.551,2.984 -3.382,5.363 l 1.329,-0.032 c -0.059,-1.956 1.277,-3.406 2.692,-4.215 1.431,-0.822 3.698,-1.612 4.765,0.252 0.922,1.572 -0.613,2.984 -2.246,4.338 -1.978,1.641 -3.865,3.363 -2.569,5.628 1.369,2.466 4.313,1.818 6.277,0.693 1.598,-0.916 3.065,-2.33 3.181,-4.52 z"
         style="fill:#ffffff;fill-opacity:1;fill-rule:nonzero;stroke:none"
         id="path92" /></g><g
       id="g94"
       transform="matrix(0.82197539,0,0,0.80412118,83.942738,30.640107)"><path
         d="M 0,0 C 3.491,-1.114 6.018,1.001 6.912,3.738 7.827,6.607 6.943,9.709 3.457,10.84 0.021,11.938 -2.564,10.084 -3.49,7.055 -4.345,4.247 -3.492,1.116 0,0 M 8.191,3.329 C 7.105,-0.01 3.947,-2.587 -0.385,-1.206 c -4.351,1.388 -5.452,5.325 -4.379,8.687 1.15,3.602 4.457,5.89 8.606,4.566 4.327,-1.4 5.458,-5.306 4.349,-8.718"
         style="fill:#ffffff;fill-opacity:1;fill-rule:nonzero;stroke:none"
         id="path96" /></g><g
       id="g98"
       transform="matrix(0.82197539,0,0,0.80412118,106.50974,27.358247)"><path
         d="m 0,0 c -1.481,-1.232 -3.261,-1.742 -5.056,-1.578 -4.621,0.427 -6.647,3.734 -6.323,7.46 0.316,3.649 2.951,6.737 7.591,6.311 1.776,-0.164 3.514,-0.96 4.551,-2.443 L -0.133,9.006 c -0.991,1.169 -2.335,1.832 -3.768,1.964 -3.724,0.344 -5.868,-2.233 -6.14,-5.193 -0.289,-3.131 1.376,-5.769 5.1,-6.113 1.431,-0.132 2.993,0.302 4.161,1.274 z"
         style="fill:#ffffff;fill-opacity:1;fill-rule:nonzero;stroke:none"
         id="path100" /></g><g
       id="g102"
       transform="matrix(0.82197539,0,0,0.80412118,113.27041,26.089666)"><path
         d="M 0,0 -0.734,13.411 0.607,13.486 1.342,0.073 Z"
         style="fill:#ffffff;fill-opacity:1;fill-rule:nonzero;stroke:none"
         id="path104" /></g><g
       id="g106"
       transform="matrix(0.82197539,0,0,0.80412118,123.07814,30.608344)"><path
         d="M 0,0 6.571,1.382 1.714,8.163 Z M 7.349,0.292 -0.272,-1.311 -0.985,-4.638 -2.374,-4.93 0.756,9.452 2.07,9.728 10.73,-2.174 9.34,-2.466 Z"
         style="fill:#ffffff;fill-opacity:1;fill-rule:nonzero;stroke:none"
         id="path108" /></g><g
       id="g110"
       transform="matrix(0.82197539,0,0,0.80412118,136.45012,40.857271)"><path
         d="M 0,0 -4.389,-1.783 -4.866,-0.61 C -1.348,0.819 1.638,2.032 5.156,3.461 L 5.633,2.288 1.244,0.505 5.821,-10.761 4.577,-11.267 Z"
         style="fill:#ffffff;fill-opacity:1;fill-rule:nonzero;stroke:none"
         id="path112" /></g><g
       id="g114"
       transform="matrix(0.82197539,0,0,0.80412118,150.43874,36.598967)"><path
         d="m 0,0 -6.695,11.64 1.164,0.669 6.695,-11.64 z"
         style="fill:#ffffff;fill-opacity:1;fill-rule:nonzero;stroke:none"
         id="path116" /></g><g
       id="g118"
       transform="matrix(0.82197539,0,0,0.80412118,161.5271,44.994957)"><path
         d="M 0,0 C 2.843,2.314 2.456,5.586 0.656,7.831 -1.246,10.169 -4.326,11.126 -7.181,8.828 -9.979,6.551 -9.843,3.372 -7.815,0.942 -5.932,-1.313 -2.843,-2.312 0,0 m 1.697,8.678 c 2.202,-2.735 2.63,-6.79 -0.898,-9.659 -3.543,-2.883 -7.44,-1.649 -9.669,1.09 -2.385,2.932 -2.489,6.952 0.89,9.702 3.539,2.856 7.427,1.663 9.677,-1.133"
         style="fill:#ffffff;fill-opacity:1;fill-rule:nonzero;stroke:none"
         id="path120" /></g><g
       id="g122"
       transform="matrix(0.82197539,0,0,0.80412118,175.52789,61.163019)"><path
         d="m 0,0 -3.543,2.691 -5.065,3.987 0.83,1.054 10.55,-8.303 -0.497,-0.633 -13.859,-0.149 3.143,-2.424 5.366,-4.224 -0.831,-1.054 -10.549,8.303 0.521,0.663 z"
         style="fill:#ffffff;fill-opacity:1;fill-rule:nonzero;stroke:none"
         id="path124" /></g><path
       style="fill:#99c584;fill-rule:evenodd;stroke:none;stroke-width:0.75px;stroke-linecap:butt;stroke-linejoin:miter;stroke-opacity:1;fill-opacity:1"
       d="m 150.48596,106.36369 -82.42707,10e-4 v 2.68416 l 82.42707,-0.002 z"
       id="path18437" /><path
       style="fill:#99c584;fill-opacity:1;fill-rule:evenodd;stroke:none;stroke-width:0.75px;stroke-linecap:butt;stroke-linejoin:miter;stroke-opacity:1"
       d="m 88.241627,137.74411 c 0,0 -2.541412,-12.01246 -2.541412,-29.28822 0,-17.275751 3.468645,-34.582684 3.468645,-34.582684 l -2.71584,-0.27501 c 0,0 -3.805071,11.743263 -3.805071,34.499874 0,22.75662 2.872116,29.95766 2.872116,29.95766 z"
       id="path41798"
       sodipodi:nodetypes="cscczcc" /><path
       style="fill:#99c584;fill-rule:evenodd;stroke:none;stroke-width:0.75px;stroke-linecap:butt;stroke-linejoin:miter;stroke-opacity:1;fill-opacity:1"
       d="m 108.2677,136.76432 0.003,-62.891114 h 2.7425 l -0.0118,62.801024 z"
       id="path53156" /><path
       style="fill:#99c584;fill-opacity:1;fill-rule:evenodd;stroke:none;stroke-width:0.75px;stroke-linecap:butt;stroke-linejoin:miter;stroke-opacity:1"
       d="m 131.42929,144.92011 c 0,0 5.71797,-15.36267 5.67137,-36.88997 -0.0505,-23.328654 -4.59949,-34.737568 -4.59949,-34.737568 l -2.68104,0.562919 c 0,0 4.90678,15.532118 5.01138,33.375439 0.11103,18.93885 -6.06706,37.25978 -6.06706,37.25978 z"
       id="path59251"
       sodipodi:nodetypes="csccscc" /></g><g
     inkscape:groupmode="layer"
     id="layer1"
     inkscape:label="Bleed" /></svg>
